<?xml version="1.0" encoding="utf-8"?>
<!-- Generator: Adobe Illustrator 22.0.1, SVG Export Plug-In . SVG Version: 6.00 Build 0)  -->
<svg version="1.1" id="Livello_1" xmlns="http://www.w3.org/2000/svg" xmlns:xlink="http://www.w3.org/1999/xlink" x="0px" y="0px"
	 viewBox="0 0 595.3 841.9" style="enable-background:new 0 0 595.3 841.9;" xml:space="preserve">
<style type="text/css">
	.st0{fill:none;stroke:#F59E0B;stroke-width:30;stroke-linecap:round;stroke-linejoin:round;stroke-miterlimit:10;}
</style>
<g>
	<g>
		<path class="st0" d="M201.8,698.2c-13.1,1.9-26.6,2.9-40.4,2.9c-149.4,0-270.5-117.5-270.5-260.9c0-0.7,0,0.7,0,0s0,0.7,0,0
			c0-143.5,121.1-261,270.5-261S432,295.6,432,439c0,0.7,0,1.4,0,2.2v-2.1c0,0.7,0,1.4,0,2.2c0,92.2-50,173.1-125.2,219.2"/>
		<line class="st0" x1="169.3" y1="427.7" x2="297.1" y2="532.3"/>
		<path class="st0" d="M193.4,322.9c0,0,45.9,34.6,103.7,86.6"/>
		<line class="st0" x1="424.9" y1="427.7" x2="297.1" y2="532.3"/>
		<path class="st0" d="M400.7,322.9c0,0-45.9,34.6-103.7,86.6"/>
		<path class="st0" d="M394.3,182c13-1.8,26.2-2.8,39.6-2.8c149.4,0,270.5,116.4,270.5,259.8c0,0.7,0,1.4,0,2.2v-2.1
			c0,0.7,0,1.4,0,2.2c0,143.6-121.1,259.8-270.5,259.8S163.3,583.7,163.3,440.2c0-0.7,0,0.7,0,0c0-0.7,0,0.7,0,0
			c0-94.7,52.7-178.1,131.6-223.8"/>
		<line class="st0" x1="297.1" y1="218.5" x2="297.1" y2="659.5"/>
	</g>
</g>
</svg>
