<?xml version="1.0" encoding="utf-8"?>
<!-- Generator: Adobe Illustrator 22.0.1, SVG Export Plug-In . SVG Version: 6.00 Build 0)  -->
<svg version="1.1" id="Livello_1" xmlns="http://www.w3.org/2000/svg" xmlns:xlink="http://www.w3.org/1999/xlink" x="0px" y="0px"
	 viewBox="0 0 144 144" style="enable-background:new 0 0 144 144;" xml:space="preserve">
<style type="text/css">
	.st0{fill:none;stroke:#F59E0B;stroke-width:5;stroke-linecap:round;stroke-linejoin:round;stroke-miterlimit:10;}
</style>
<g>
	<g>
		<path class="st0" d="M55.7,113c-2.2,0.3-4.5,0.5-6.9,0.5c-25.5,0-46.1-18.7-46.1-41.7c0-0.1,0,0.1,0,0c0-0.1,0,0.1,0,0
			c0-22.9,20.7-41.7,46.1-41.7c25.5,0,46.1,18.6,46.1,41.5c0,0.1,0,0.2,0,0.3v-0.3c0,0.1,0,0.2,0,0.4c0,14.7-8.5,27.6-21.3,35"/>
		<line class="st0" x1="50.1" y1="69.8" x2="71.9" y2="86.5"/>
		<path class="st0" d="M54.2,53.1c0,0,7.8,5.5,17.7,13.8"/>
		<line class="st0" x1="93.7" y1="69.8" x2="71.9" y2="86.5"/>
		<path class="st0" d="M89.6,53.1c0,0-7.8,5.5-17.7,13.8"/>
		<path class="st0" d="M88.5,30.6c2.2-0.3,4.5-0.4,6.8-0.4c25.5,0,46.1,18.6,46.1,41.5c0,0.1,0,0.2,0,0.3v-0.3c0,0.1,0,0.2,0,0.4
			c0,22.9-20.7,41.5-46.1,41.5c-25.5,0-46.1-18.7-46.1-41.7c0-0.1,0,0.1,0,0c0-0.1,0,0.1,0,0c0-15.1,9-28.4,22.4-35.7"/>
		<line class="st0" x1="71.9" y1="36.5" x2="71.9" y2="106.9"/>
	</g>
</g>
</svg>
